<?xml version="1.0" standalone="no"?>
<!DOCTYPE svg PUBLIC "-//W3C//DTD SVG 20010904//EN"
 "http://www.w3.org/TR/2001/REC-SVG-20010904/DTD/svg10.dtd">
<svg version="1.0" xmlns="http://www.w3.org/2000/svg"
 width="512.000000pt" height="512.000000pt" viewBox="0 0 512.000000 512.000000"
 preserveAspectRatio="xMidYMid meet">
<metadata>
Created by potrace 1.14, written by Peter Selinger 2001-2017
</metadata>
<g transform="translate(0.000000,512.000000) scale(0.100000,-0.100000)"
fill="#000000" stroke="none">
<path d="M2292 4544 c-445 -64 -836 -258 -1147 -569 -305 -305 -499 -692 -570
-1140 -14 -88 -14 -430 0 -531 47 -346 180 -674 378 -937 84 -111 97 -125 212
-241 263 -266 607 -447 1006 -531 168 -36 475 -45 652 -21 906 127 1596 815
1722 1717 17 124 19 382 3 509 -90 737 -567 1351 -1260 1623 -98 39 -260 87
-338 101 -14 2 -41 7 -60 10 -19 3 -48 9 -65 12 -64 13 -440 12 -533 -2z"/>
</g>
</svg>
